<?xml version="1.0" standalone="no"?>
<!DOCTYPE svg PUBLIC "-//W3C//DTD SVG 20010904//EN"
 "http://www.w3.org/TR/2001/REC-SVG-20010904/DTD/svg10.dtd">
<svg version="1.0" xmlns="http://www.w3.org/2000/svg"
 width="500.000000pt" height="500.000000pt" viewBox="0 0 500.000000 500.000000"
 preserveAspectRatio="xMidYMid meet">

<g transform="translate(0.000000,500.000000) scale(0.100000,-0.100000)"
fill="#000000" stroke="none">
<path d="M0 2500 l0 -2500 2500 0 2500 0 0 2500 0 2500 -2500 0 -2500 0 0
-2500z m2711 906 c328 -83 574 -320 675 -652 26 -82 28 -103 28 -254 0 -151
-2 -172 -28 -254 -101 -332 -347 -569 -675 -652 -112 -29 -298 -33 -408 -9
-359 76 -630 334 -719 682 -34 137 -34 330 0 467 25 98 80 219 135 300 82 119
214 233 346 298 145 72 246 96 421 97 108 1 148 -3 225 -23z"/>
<path d="M2321 3380 c-73 -16 -172 -51 -236 -84 l-60 -31 43 -3 42 -3 0 -48
c0 -48 1 -49 84 -125 l83 -75 19 21 c11 11 42 31 69 44 95 45 220 28 311 -41
l31 -24 76 77 c69 70 76 81 79 122 3 44 4 45 42 50 31 4 36 7 25 16 -28 23
-96 52 -179 79 -73 23 -106 27 -235 30 -82 2 -170 0 -194 -5z"/>
<path d="M1940 3209 c-200 -161 -317 -377 -344 -634 l-7 -60 34 33 c18 17 38
32 43 32 6 0 23 -13 39 -30 l29 -30 118 0 118 0 0 355 c0 195 -1 355 -2 355
-2 -1 -14 -10 -28 -21z"/>
<path d="M3000 2875 l0 -355 123 0 123 0 29 30 c35 37 41 37 78 3 l30 -28 -7
70 c-13 137 -62 274 -142 397 -46 72 -171 205 -213 227 l-21 12 0 -356z"/>
<path d="M2030 3200 c0 -13 7 -20 20 -20 13 0 20 7 20 20 0 13 -7 20 -20 20
-13 0 -20 -7 -20 -20z"/>
<path d="M2900 3200 c0 -15 7 -20 25 -20 18 0 25 5 25 20 0 15 -7 20 -25 20
-18 0 -25 -5 -25 -20z"/>
<path d="M2010 2830 l0 -310 85 0 85 0 0 263 0 263 -48 47 c-40 39 -54 47 -85
47 l-37 0 0 -310z"/>
<path d="M2812 3057 l-83 -83 20 -45 c28 -60 28 -168 0 -229 -32 -72 -65 -106
-130 -139 -117 -59 -255 -36 -340 55 -20 22 -41 48 -47 59 -10 18 -11 16 -12
-15 0 -32 6 -39 76 -87 l75 -53 294 0 295 0 0 310 0 310 -33 0 c-27 0 -45 -13
-115 -83z"/>
<path d="M2400 3049 c-14 -6 -42 -22 -63 -36 l-38 -26 53 -54 52 -53 86 0 86
0 49 50 c56 57 54 64 -28 105 -55 27 -147 34 -197 14z"/>
<path d="M2221 2970 c0 -33 1 -34 11 -12 8 17 8 26 0 34 -9 9 -12 4 -11 -22z"/>
<path d="M2254 2905 c-39 -94 -2 -225 83 -290 129 -99 325 -43 383 110 17 45
14 148 -5 186 l-17 31 -44 -43 c-34 -33 -44 -51 -44 -75 0 -63 -1 -64 -126
-64 l-114 0 0 47 c0 42 -5 52 -42 90 -23 24 -46 43 -51 43 -4 0 -15 -16 -23
-35z"/>
<path d="M2410 2820 c0 -13 7 -20 20 -20 13 0 20 7 20 20 0 13 -7 20 -20 20
-13 0 -20 -7 -20 -20z"/>
<path d="M2520 2820 c0 -13 7 -20 20 -20 13 0 20 7 20 20 0 13 -7 20 -20 20
-13 0 -20 -7 -20 -20z"/>
<path d="M2220 2545 c0 -22 4 -25 38 -25 l37 1 -30 24 c-38 31 -45 31 -45 0z"/>
<path d="M1650 2516 c-10 -13 -10 -19 0 -32 12 -14 15 -14 29 0 14 15 14 17 0
32 -14 14 -17 14 -29 0z"/>
<path d="M3300 2516 c-10 -13 -10 -19 0 -32 12 -14 15 -14 29 0 14 15 14 17 0
32 -14 14 -17 14 -29 0z"/>
<path d="M1590 2474 c2 -40 23 -169 36 -213 l15 -54 28 27 c15 14 31 26 35 26
5 0 24 -13 43 -30 l34 -30 169 0 c94 0 170 4 170 8 0 4 -31 66 -68 137 l-69
130 -124 3 -125 3 -29 -31 c-16 -16 -33 -30 -39 -30 -5 0 -25 14 -43 32 -18
18 -33 28 -33 22z"/>
<path d="M2030 2475 c0 -8 130 -249 140 -259 7 -7 10 37 10 127 l0 137 -75 0
c-41 0 -75 -2 -75 -5z"/>
<path d="M2220 2340 l0 -140 262 0 c225 0 260 2 248 14 -8 8 -95 71 -194 140
l-178 126 -69 0 -69 0 0 -140z"/>
<path d="M2556 2389 c71 -50 157 -111 191 -135 l63 -45 56 113 c31 62 63 122
71 135 l15 23 -263 0 -262 0 129 -91z"/>
<path d="M2922 2340 l-73 -140 173 0 174 0 29 30 c35 37 45 37 75 5 13 -14 28
-21 32 -17 14 14 37 110 44 186 l7 71 -30 -27 c-37 -35 -43 -35 -78 2 l-29 30
-125 0 -126 0 -73 -140z"/>
<path d="M1743 2128 c-27 -27 -34 -30 -48 -18 -26 22 -8 -16 51 -106 127 -194
334 -331 571 -379 139 -28 140 -46 -22 260 l-143 270 -188 3 -189 2 -32 -32z"/>
<path d="M2202 2151 c8 -24 284 -540 288 -541 5 0 18 23 181 338 l110 212
-291 0 c-180 0 -290 -4 -288 -9z"/>
<path d="M2823 2148 c-6 -7 -63 -116 -128 -243 -65 -126 -127 -245 -138 -264
l-20 -34 59 7 c270 32 533 206 664 439 18 33 26 55 18 52 -8 -3 -27 8 -43 25
l-29 30 -187 0 c-137 0 -189 -3 -196 -12z"/>
</g>
</svg>
